# xmcd
#
# Track frame offsets: 
#        150
#        14961
#        27824
#        46323
#        62851
#        77697
#        94189
#        107812
#        121823
#        142189
#
# Disc length: 2140 seconds
#
# Revision: 0
# Processed by: cddbd v1.5.2PL0 Copyright (c) Steve Scherf et al.
# Submitted via: ExactAudioCopy v0.99pb4
#
DISCID=89085a0a
DTITLE=Austin Collins - Something Better
DYEAR=2005
DGENRE=Country
TTITLE0=22 Hours
TTITLE1=Emily
TTITLE2=Reckless and Lovely
TTITLE3=Something Better
TTITLE4=Leave Me For Dead
TTITLE5=Denver Nights
TTITLE6=Things You Want The Most
TTITLE7=Down
TTITLE8=Eyes Won't See
TTITLE9=Inside (Restless)
EXTD=
EXTT0=
EXTT1=
EXTT2=
EXTT3=
EXTT4=
EXTT5=
EXTT6=
EXTT7=
EXTT8=
EXTT9=
PLAYORDER=
